<mxfile host="65bd71144e">
    <diagram id="SdbLkxMRp30jasvHrXL3" name="PAD - Principal">
        <mxGraphModel dx="1522" dy="726" grid="1" gridSize="10" guides="1" tooltips="1" connect="1" arrows="1" fold="1" page="1" pageScale="1" pageWidth="1169" pageHeight="827" math="0" shadow="0">
            <root>
                <mxCell id="x3nr8VQjB9ESs8nn1Gr7-0"/>
                <mxCell id="x3nr8VQjB9ESs8nn1Gr7-1" parent="x3nr8VQjB9ESs8nn1Gr7-0"/>
                <mxCell id="_VlxlO0Td42rT7rMFgZD-4" style="edgeStyle=none;html=1;" parent="x3nr8VQjB9ESs8nn1Gr7-1" source="ct-JfEYztuQgQmaXrdq_-0" target="_VlxlO0Td42rT7rMFgZD-2" edge="1">
                    <mxGeometry relative="1" as="geometry"/>
                </mxCell>
                <mxCell id="ct-JfEYztuQgQmaXrdq_-0" value="DIGITAL&lt;br&gt;(via SGPE)" style="rounded=0;whiteSpace=wrap;html=1;fillColor=#d80073;fontColor=#ffffff;strokeColor=#A50040;" parent="x3nr8VQjB9ESs8nn1Gr7-1" vertex="1">
                    <mxGeometry x="10" y="150" width="110" height="50" as="geometry"/>
                </mxCell>
                <mxCell id="ct-JfEYztuQgQmaXrdq_-1" value="Importação PDF ofício assinado no SGPE" style="text;html=1;strokeColor=none;fillColor=none;align=left;verticalAlign=middle;whiteSpace=wrap;rounded=0;dashed=1;fontSize=12;fontColor=#FF8000;" parent="x3nr8VQjB9ESs8nn1Gr7-1" vertex="1">
                    <mxGeometry x="10" y="100" width="133" height="30" as="geometry"/>
                </mxCell>
                <mxCell id="_VlxlO0Td42rT7rMFgZD-5" style="edgeStyle=none;html=1;" parent="x3nr8VQjB9ESs8nn1Gr7-1" source="ct-JfEYztuQgQmaXrdq_-2" target="_VlxlO0Td42rT7rMFgZD-2" edge="1">
                    <mxGeometry relative="1" as="geometry"/>
                </mxCell>
                <mxCell id="ct-JfEYztuQgQmaXrdq_-2" value="MANUAL&lt;br&gt;(via Ofício)" style="rounded=0;whiteSpace=wrap;html=1;fillColor=#d80073;fontColor=#ffffff;strokeColor=#A50040;" parent="x3nr8VQjB9ESs8nn1Gr7-1" vertex="1">
                    <mxGeometry x="10" y="245" width="110" height="50" as="geometry"/>
                </mxCell>
                <mxCell id="_VlxlO0Td42rT7rMFgZD-0" value="Organograma PAD - Processo Administrativo Disciplinar" style="text;html=1;strokeColor=none;fillColor=none;align=left;verticalAlign=middle;whiteSpace=wrap;rounded=0;fontSize=18;fontColor=#FFFFFF;" parent="x3nr8VQjB9ESs8nn1Gr7-1" vertex="1">
                    <mxGeometry x="1" width="649" height="30" as="geometry"/>
                </mxCell>
                <mxCell id="_VlxlO0Td42rT7rMFgZD-1" value="Mapa estístico (Quantitativo)" style="text;html=1;strokeColor=none;fillColor=none;align=left;verticalAlign=middle;whiteSpace=wrap;rounded=0;dashed=1;fontSize=12;fontColor=#FF8000;" parent="x3nr8VQjB9ESs8nn1Gr7-1" vertex="1">
                    <mxGeometry x="10" y="60" width="170" height="30" as="geometry"/>
                </mxCell>
                <mxCell id="_VlxlO0Td42rT7rMFgZD-11" style="edgeStyle=none;html=1;" parent="x3nr8VQjB9ESs8nn1Gr7-1" source="_VlxlO0Td42rT7rMFgZD-2" target="_VlxlO0Td42rT7rMFgZD-9" edge="1">
                    <mxGeometry relative="1" as="geometry"/>
                </mxCell>
                <mxCell id="_VlxlO0Td42rT7rMFgZD-2" value="&lt;font style=&quot;font-size: 9px&quot;&gt;Instauração&lt;br&gt;(Geração dos 3 documentos principais)&lt;/font&gt;" style="rounded=0;whiteSpace=wrap;html=1;fillColor=#d80073;fontColor=#ffffff;strokeColor=#A50040;" parent="x3nr8VQjB9ESs8nn1Gr7-1" vertex="1">
                    <mxGeometry x="190" y="200" width="110" height="50" as="geometry"/>
                </mxCell>
                <mxCell id="_VlxlO0Td42rT7rMFgZD-3" value="Abertura de portaria&lt;br&gt;-&amp;gt; Capa (PAD - Instaurado pela portaria &quot;xxxxx&quot; - Pegar docs&lt;br&gt;-&amp;gt; Relatório&lt;br&gt;-&amp;gt; Portaria (Número sequencial)" style="text;html=1;strokeColor=none;fillColor=none;align=left;verticalAlign=middle;whiteSpace=wrap;rounded=0;dashed=1;fontSize=12;fontColor=#FF8000;" parent="x3nr8VQjB9ESs8nn1Gr7-1" vertex="1">
                    <mxGeometry x="190" y="130" width="370" height="70" as="geometry"/>
                </mxCell>
                <mxCell id="_VlxlO0Td42rT7rMFgZD-16" style="edgeStyle=none;html=1;fontSize=9;" parent="x3nr8VQjB9ESs8nn1Gr7-1" source="_VlxlO0Td42rT7rMFgZD-6" target="_VlxlO0Td42rT7rMFgZD-15" edge="1">
                    <mxGeometry relative="1" as="geometry"/>
                </mxCell>
                <mxCell id="_VlxlO0Td42rT7rMFgZD-6" value="Controle de realização oitivas" style="rounded=0;whiteSpace=wrap;html=1;fillColor=#d80073;fontColor=#ffffff;strokeColor=#A50040;" parent="x3nr8VQjB9ESs8nn1Gr7-1" vertex="1">
                    <mxGeometry x="560" y="200" width="110" height="50" as="geometry"/>
                </mxCell>
                <mxCell id="_VlxlO0Td42rT7rMFgZD-12" style="edgeStyle=none;html=1;fontSize=9;" parent="x3nr8VQjB9ESs8nn1Gr7-1" source="_VlxlO0Td42rT7rMFgZD-9" target="_VlxlO0Td42rT7rMFgZD-6" edge="1">
                    <mxGeometry relative="1" as="geometry"/>
                </mxCell>
                <mxCell id="_VlxlO0Td42rT7rMFgZD-9" value="Gerar automaticamente&lt;br&gt;Termo de ciência e nomeação de defensor" style="rounded=0;whiteSpace=wrap;html=1;fillColor=#d80073;fontColor=#ffffff;strokeColor=#A50040;" parent="x3nr8VQjB9ESs8nn1Gr7-1" vertex="1">
                    <mxGeometry x="360" y="200" width="140" height="50" as="geometry"/>
                </mxCell>
                <mxCell id="_VlxlO0Td42rT7rMFgZD-13" value="Agenda de oitivas;&lt;br&gt;Contato do adv;&lt;br&gt;Participantes;&lt;br&gt;Local:" style="text;html=1;strokeColor=none;fillColor=none;align=left;verticalAlign=middle;whiteSpace=wrap;rounded=0;dashed=1;fontSize=12;fontColor=#FF8000;" parent="x3nr8VQjB9ESs8nn1Gr7-1" vertex="1">
                    <mxGeometry x="560" y="128" width="110" height="80" as="geometry"/>
                </mxCell>
                <mxCell id="_VlxlO0Td42rT7rMFgZD-14" value="Ata de oitiva" style="text;html=1;strokeColor=none;fillColor=none;align=left;verticalAlign=middle;whiteSpace=wrap;rounded=0;dashed=1;fontSize=12;fontColor=#FF8000;" parent="x3nr8VQjB9ESs8nn1Gr7-1" vertex="1">
                    <mxGeometry x="710" y="168" width="110" height="40" as="geometry"/>
                </mxCell>
                <mxCell id="_VlxlO0Td42rT7rMFgZD-19" style="edgeStyle=none;html=1;fontSize=9;" parent="x3nr8VQjB9ESs8nn1Gr7-1" source="_VlxlO0Td42rT7rMFgZD-15" target="_VlxlO0Td42rT7rMFgZD-17" edge="1">
                    <mxGeometry relative="1" as="geometry"/>
                </mxCell>
                <mxCell id="_VlxlO0Td42rT7rMFgZD-15" value="TERMO DE DECLARAÇÃO" style="rounded=0;whiteSpace=wrap;html=1;fillColor=#d80073;fontColor=#ffffff;strokeColor=#A50040;" parent="x3nr8VQjB9ESs8nn1Gr7-1" vertex="1">
                    <mxGeometry x="710" y="200" width="110" height="50" as="geometry"/>
                </mxCell>
                <mxCell id="_VlxlO0Td42rT7rMFgZD-44" style="edgeStyle=none;html=1;fontSize=9;fontStyle=0" parent="x3nr8VQjB9ESs8nn1Gr7-1" source="_VlxlO0Td42rT7rMFgZD-17" target="_VlxlO0Td42rT7rMFgZD-42" edge="1">
                    <mxGeometry relative="1" as="geometry"/>
                </mxCell>
                <mxCell id="_VlxlO0Td42rT7rMFgZD-17" value="PARECER FINAL" style="rounded=0;whiteSpace=wrap;html=1;fillColor=#d80073;fontColor=#ffffff;strokeColor=#A50040;" parent="x3nr8VQjB9ESs8nn1Gr7-1" vertex="1">
                    <mxGeometry x="850" y="200" width="110" height="50" as="geometry"/>
                </mxCell>
                <mxCell id="_VlxlO0Td42rT7rMFgZD-28" style="edgeStyle=none;html=1;fontSize=9;" parent="x3nr8VQjB9ESs8nn1Gr7-1" source="_VlxlO0Td42rT7rMFgZD-20" target="_VlxlO0Td42rT7rMFgZD-26" edge="1">
                    <mxGeometry relative="1" as="geometry"/>
                </mxCell>
                <mxCell id="_VlxlO0Td42rT7rMFgZD-20" value="ABERTURA de prazo para defesa técnica" style="rounded=0;whiteSpace=wrap;html=1;dashed=1;" parent="x3nr8VQjB9ESs8nn1Gr7-1" vertex="1">
                    <mxGeometry x="850" y="417.5" width="110" height="50" as="geometry"/>
                </mxCell>
                <mxCell id="_VlxlO0Td42rT7rMFgZD-21" value="Elaborado pela unidade&lt;br&gt;e recolhido assinaturas de todos os envolvidos" style="text;html=1;strokeColor=none;fillColor=none;align=left;verticalAlign=middle;whiteSpace=wrap;rounded=0;dashed=1;fontSize=12;fontColor=#FF8000;" parent="x3nr8VQjB9ESs8nn1Gr7-1" vertex="1">
                    <mxGeometry x="963" y="185" width="130" height="80" as="geometry"/>
                </mxCell>
                <mxCell id="_VlxlO0Td42rT7rMFgZD-23" value="-&amp;gt; Procedemente - Grave&lt;br&gt;-&amp;gt; Improcedente - (Sem nenhuma falta)&lt;br&gt;-&amp;gt; Improcedente - (Grave para média)" style="text;html=1;strokeColor=none;fillColor=none;align=left;verticalAlign=middle;whiteSpace=wrap;rounded=0;dashed=1;fontSize=12;fontColor=#FF8000;" parent="x3nr8VQjB9ESs8nn1Gr7-1" vertex="1">
                    <mxGeometry x="963" y="497.5" width="214" height="80" as="geometry"/>
                </mxCell>
                <mxCell id="_VlxlO0Td42rT7rMFgZD-39" style="edgeStyle=none;html=1;fontSize=9;" parent="x3nr8VQjB9ESs8nn1Gr7-1" source="_VlxlO0Td42rT7rMFgZD-26" target="_VlxlO0Td42rT7rMFgZD-38" edge="1">
                    <mxGeometry relative="1" as="geometry"/>
                </mxCell>
                <mxCell id="_VlxlO0Td42rT7rMFgZD-26" value="Geração automática de oficio" style="rounded=0;whiteSpace=wrap;html=1;" parent="x3nr8VQjB9ESs8nn1Gr7-1" vertex="1">
                    <mxGeometry x="850" y="512.5" width="110" height="50" as="geometry"/>
                </mxCell>
                <mxCell id="_VlxlO0Td42rT7rMFgZD-27" value="Criar controle dos prazos - Mostrar prazos vencidos ..." style="text;html=1;strokeColor=none;fillColor=none;align=left;verticalAlign=middle;whiteSpace=wrap;rounded=0;dashed=1;fontSize=12;fontColor=#FF8000;" parent="x3nr8VQjB9ESs8nn1Gr7-1" vertex="1">
                    <mxGeometry x="963" y="410" width="170" height="55" as="geometry"/>
                </mxCell>
                <mxCell id="_VlxlO0Td42rT7rMFgZD-29" value="Permitir edição total dos dados de ofício" style="text;html=1;strokeColor=none;fillColor=none;align=left;verticalAlign=middle;whiteSpace=wrap;rounded=0;dashed=1;fontSize=12;fontColor=#FF8000;" parent="x3nr8VQjB9ESs8nn1Gr7-1" vertex="1">
                    <mxGeometry x="2130" y="840" width="170" height="55" as="geometry"/>
                </mxCell>
                <mxCell id="_VlxlO0Td42rT7rMFgZD-31" value="Permitir gerar um relatório dinâmico por regime das faltas cometidas" style="text;html=1;strokeColor=none;fillColor=none;align=left;verticalAlign=middle;whiteSpace=wrap;rounded=0;dashed=1;fontSize=12;fontColor=#FF8000;" parent="x3nr8VQjB9ESs8nn1Gr7-1" vertex="1">
                    <mxGeometry x="40" y="559" width="170" height="55" as="geometry"/>
                </mxCell>
                <mxCell id="_VlxlO0Td42rT7rMFgZD-32" value="Mapa estatistico do tempo decorrido do PAD - Desde a data da falta até a instauração" style="text;html=1;strokeColor=none;fillColor=none;align=left;verticalAlign=middle;whiteSpace=wrap;rounded=0;dashed=1;fontSize=12;fontColor=#FF8000;" parent="x3nr8VQjB9ESs8nn1Gr7-1" vertex="1">
                    <mxGeometry x="40" y="413.5" width="170" height="64" as="geometry"/>
                </mxCell>
                <mxCell id="_VlxlO0Td42rT7rMFgZD-33" value="Mapa estatistico do tempo decorrido do PAD - Desde a data de instauração instauração até a conclusão administrativa (Envio do ofício)" style="text;html=1;strokeColor=none;fillColor=none;align=left;verticalAlign=middle;whiteSpace=wrap;rounded=0;dashed=1;fontSize=12;fontColor=#FF8000;" parent="x3nr8VQjB9ESs8nn1Gr7-1" vertex="1">
                    <mxGeometry x="40" y="467" width="170" height="93" as="geometry"/>
                </mxCell>
                <mxCell id="_VlxlO0Td42rT7rMFgZD-34" value="Criar opção para informar&lt;br&gt;o tipo de falta&lt;br&gt;(Leve, Média e Grave)" style="text;html=1;strokeColor=none;fillColor=none;align=left;verticalAlign=middle;whiteSpace=wrap;rounded=0;dashed=1;fontSize=12;fontColor=#FF8000;" parent="x3nr8VQjB9ESs8nn1Gr7-1" vertex="1">
                    <mxGeometry x="190" y="260" width="170" height="55" as="geometry"/>
                </mxCell>
                <mxCell id="_VlxlO0Td42rT7rMFgZD-38" value="CONCLUSÃO&lt;br&gt;(FIM)" style="ellipse;whiteSpace=wrap;html=1;dashed=1;fontSize=9;" parent="x3nr8VQjB9ESs8nn1Gr7-1" vertex="1">
                    <mxGeometry x="875" y="603" width="60" height="40" as="geometry"/>
                </mxCell>
                <mxCell id="_VlxlO0Td42rT7rMFgZD-40" value="DESPACHO - SUBSTITUIÇÃO DE CONSELHEIRO" style="rounded=0;whiteSpace=wrap;html=1;fillColor=#d80073;fontColor=#ffffff;strokeColor=#A50040;" parent="x3nr8VQjB9ESs8nn1Gr7-1" vertex="1">
                    <mxGeometry x="300" y="480" width="150" height="52" as="geometry"/>
                </mxCell>
                <mxCell id="_VlxlO0Td42rT7rMFgZD-41" value="Este documento deverá subsituir os conselheiros do PAD" style="text;html=1;strokeColor=none;fillColor=none;align=left;verticalAlign=middle;whiteSpace=wrap;rounded=0;dashed=1;fontSize=12;fontColor=#FF8000;" parent="x3nr8VQjB9ESs8nn1Gr7-1" vertex="1">
                    <mxGeometry x="300" y="532" width="205" height="55" as="geometry"/>
                </mxCell>
                <mxCell id="_VlxlO0Td42rT7rMFgZD-43" style="edgeStyle=none;html=1;fontSize=9;" parent="x3nr8VQjB9ESs8nn1Gr7-1" source="_VlxlO0Td42rT7rMFgZD-42" target="_VlxlO0Td42rT7rMFgZD-20" edge="1">
                    <mxGeometry relative="1" as="geometry"/>
                </mxCell>
                <mxCell id="_VlxlO0Td42rT7rMFgZD-42" value="DOCUMENTO SOLUÇÃO DE INCIDENTE&amp;nbsp; DISCIPLINAR" style="rounded=0;whiteSpace=wrap;html=1;fillColor=#d80073;fontColor=#ffffff;strokeColor=#A50040;" parent="x3nr8VQjB9ESs8nn1Gr7-1" vertex="1">
                    <mxGeometry x="850" y="300" width="110" height="70" as="geometry"/>
                </mxCell>
                <mxCell id="LgCuwtXkYXOChoJADpka-0" value="Criar opção oara envio&lt;br&gt;do termo via e-mail &lt;br&gt;ao defensor" style="text;html=1;strokeColor=none;fillColor=none;align=left;verticalAlign=middle;whiteSpace=wrap;rounded=0;dashed=1;fontSize=10;fontColor=#FF8000;" parent="x3nr8VQjB9ESs8nn1Gr7-1" vertex="1">
                    <mxGeometry x="360" y="255" width="140" height="40" as="geometry"/>
                </mxCell>
                <mxCell id="jc9suJPoHdBA3cdWX_8I-0" value="Criar opção para enviar &lt;br&gt;intimação da oitiva via &lt;br&gt;e-mail ao advogado" style="text;html=1;strokeColor=none;fillColor=none;align=left;verticalAlign=middle;whiteSpace=wrap;rounded=0;dashed=1;fontSize=10;fontColor=#FF8000;" parent="x3nr8VQjB9ESs8nn1Gr7-1" vertex="1">
                    <mxGeometry x="560" y="255" width="120" height="40" as="geometry"/>
                </mxCell>
                <mxCell id="hNUC439SVHAwqfm5HRPp-0" value="DESPACHO - NOMEAÇÃO DE CONSELHEIRO" style="rounded=0;whiteSpace=wrap;html=1;fillColor=#d80073;fontColor=#ffffff;strokeColor=#A50040;" parent="x3nr8VQjB9ESs8nn1Gr7-1" vertex="1">
                    <mxGeometry x="300" y="360" width="150" height="50" as="geometry"/>
                </mxCell>
                <mxCell id="hNUC439SVHAwqfm5HRPp-2" value="Este documento deverá constituir o conselho do PAD" style="text;html=1;strokeColor=none;fillColor=none;align=left;verticalAlign=middle;whiteSpace=wrap;rounded=0;dashed=1;fontSize=12;fontColor=#FF8000;" parent="x3nr8VQjB9ESs8nn1Gr7-1" vertex="1">
                    <mxGeometry x="299" y="405" width="205" height="55" as="geometry"/>
                </mxCell>
                <mxCell id="0" value="Será composto por uma grande área chamada Parecer final" style="text;html=1;strokeColor=none;fillColor=none;align=left;verticalAlign=middle;whiteSpace=wrap;rounded=0;dashed=1;fontSize=12;fontColor=#FF8000;" parent="x3nr8VQjB9ESs8nn1Gr7-1" vertex="1">
                    <mxGeometry x="850" y="161" width="230" height="43" as="geometry"/>
                </mxCell>
                <mxCell id="2" value="Será composto por uma grande área chamada Solução incidente" style="text;html=1;strokeColor=none;fillColor=none;align=left;verticalAlign=middle;whiteSpace=wrap;rounded=0;dashed=1;fontSize=12;fontColor=#FF8000;" parent="x3nr8VQjB9ESs8nn1Gr7-1" vertex="1">
                    <mxGeometry x="963" y="300" width="187" height="43" as="geometry"/>
                </mxCell>
            </root>
        </mxGraphModel>
    </diagram>
    <diagram id="qE9hi0C0fw38Akjah6gz" name="PAD - Modelagem">
        <mxGraphModel dx="1849" dy="881" grid="1" gridSize="10" guides="1" tooltips="1" connect="1" arrows="1" fold="1" page="1" pageScale="1" pageWidth="1169" pageHeight="827" math="0" shadow="0">
            <root>
                <mxCell id="FZKFDcrVezWJPaZsWLeS-0"/>
                <mxCell id="FZKFDcrVezWJPaZsWLeS-1" parent="FZKFDcrVezWJPaZsWLeS-0"/>
                <mxCell id="vHSW1K-2KK8vFgkdbPz2-4" value="Pad" style="swimlane;childLayout=stackLayout;horizontal=1;startSize=30;horizontalStack=0;rounded=1;fontSize=14;fontStyle=0;strokeWidth=2;resizeParent=0;resizeLast=1;shadow=0;dashed=0;align=center;" parent="FZKFDcrVezWJPaZsWLeS-1" vertex="1">
                    <mxGeometry x="30" y="210" width="310" height="396" as="geometry"/>
                </mxCell>
                <mxCell id="vHSW1K-2KK8vFgkdbPz2-5" value="+EntityAudit: EntityAudit&#10;+Portaria: Int64&#10;+Falta: FaltaTipoEnum&#10;+DiasMedidaPreventiva: Int32&#10;+DataInstauracao: DateTime&#10;+DataOcorrencia: DateTime&#10;+PortariaSGPE: Int64&#10;+ArtigoNumero: string&#10;+ArtigoLei: string&#10;+ArtigoDataExtenso: string&#10;+ArtigoLeiTexto: string&#10;+DescricaoCurtaFatos: string&#10;+TermoCienciaSituacao: TermoCienciaSituacaoEnum&#10;&#10;+TenantId: Guid&#10;+Tenant: Tenant&#10;&#10;+PadIncidentados: ICollections&lt;PadIncidentado&gt;&#10;+PadConselheiros: ICollections&lt;PadConselheiro&gt;&#10;+PadOitivas: ICollections&lt;PadOitiva&gt;&#10;+PadDespachos: ICollections&lt;PadDespacho&gt;&#10;+Advogados: ICollections&lt;Advogado&gt;&#10;" style="align=left;strokeColor=none;fillColor=none;spacingLeft=4;fontSize=12;verticalAlign=top;resizable=0;rotatable=0;part=1;" parent="vHSW1K-2KK8vFgkdbPz2-4" vertex="1">
                    <mxGeometry y="30" width="310" height="366" as="geometry"/>
                </mxCell>
                <mxCell id="N8-9VFTomlcZ_OQwpbym-3" style="edgeStyle=none;html=1;" parent="FZKFDcrVezWJPaZsWLeS-1" source="N8-9VFTomlcZ_OQwpbym-0" target="vHSW1K-2KK8vFgkdbPz2-4" edge="1">
                    <mxGeometry relative="1" as="geometry"/>
                </mxCell>
                <mxCell id="N8-9VFTomlcZ_OQwpbym-0" value="PadIncidentado" style="swimlane;childLayout=stackLayout;horizontal=1;startSize=30;horizontalStack=0;rounded=1;fontSize=14;fontStyle=0;strokeWidth=2;resizeParent=0;resizeLast=1;shadow=0;dashed=0;align=center;" parent="FZKFDcrVezWJPaZsWLeS-1" vertex="1">
                    <mxGeometry x="225" y="80" width="140" height="80" as="geometry"/>
                </mxCell>
                <mxCell id="N8-9VFTomlcZ_OQwpbym-2" value="+PadId: Guid&#10;+DetentoId: Guid" style="align=left;strokeColor=none;fillColor=none;spacingLeft=4;fontSize=12;verticalAlign=top;resizable=0;rotatable=0;part=1;" parent="N8-9VFTomlcZ_OQwpbym-0" vertex="1">
                    <mxGeometry y="30" width="140" height="50" as="geometry"/>
                </mxCell>
                <mxCell id="MhDtz_jI0-aRJ5hKViAq-0" value="PadOitiva" style="swimlane;childLayout=stackLayout;horizontal=1;startSize=30;horizontalStack=0;rounded=1;fontSize=14;fontStyle=0;strokeWidth=2;resizeParent=0;resizeLast=1;shadow=0;dashed=0;align=center;" parent="FZKFDcrVezWJPaZsWLeS-1" vertex="1">
                    <mxGeometry x="455" y="20" width="325" height="220" as="geometry"/>
                </mxCell>
                <mxCell id="MhDtz_jI0-aRJ5hKViAq-1" value="+DataRealizacao: DateTime&#10;+Local: string&#10;+DataIntimacaoDefesa: DateTime&#10;+IsDefesaIntimada: bool&#10;&#10;+PadId&#10;+Pad: Pad&#10;&#10;+PadOitivaDeclarantes: ICollections&lt;PadOitivaDeclarante&gt;" style="align=left;strokeColor=none;fillColor=none;spacingLeft=4;fontSize=12;verticalAlign=top;resizable=0;rotatable=0;part=1;" parent="MhDtz_jI0-aRJ5hKViAq-0" vertex="1">
                    <mxGeometry y="30" width="325" height="190" as="geometry"/>
                </mxCell>
                <mxCell id="H4ECFf_u1Zmj5ny4ypiu-4" style="edgeStyle=none;html=1;fontFamily=Roboto;fontSource=https%3A%2F%2Ffonts.google.com%2Fspecimen%2FRoboto;fontSize=10;" parent="FZKFDcrVezWJPaZsWLeS-1" source="MhDtz_jI0-aRJ5hKViAq-2" target="MhDtz_jI0-aRJ5hKViAq-1" edge="1">
                    <mxGeometry relative="1" as="geometry"/>
                </mxCell>
                <mxCell id="MhDtz_jI0-aRJ5hKViAq-2" value="PadOitivaDeclarante" style="swimlane;childLayout=stackLayout;horizontal=1;startSize=30;horizontalStack=0;rounded=1;fontSize=14;fontStyle=0;strokeWidth=2;resizeParent=0;resizeLast=1;shadow=0;dashed=0;align=center;" parent="FZKFDcrVezWJPaZsWLeS-1" vertex="1">
                    <mxGeometry x="820" y="80" width="200" height="120" as="geometry"/>
                </mxCell>
                <mxCell id="MhDtz_jI0-aRJ5hKViAq-3" value="+EntityAudit: EntityAudit&#10;+Declaracao: string&#10;+DeclaranteCondicao: Enum&#10;+PadOitivaId: Guid&#10;+PadOitiva: PadOitiva&#10;" style="align=left;strokeColor=none;fillColor=none;spacingLeft=4;fontSize=12;verticalAlign=top;resizable=0;rotatable=0;part=1;" parent="MhDtz_jI0-aRJ5hKViAq-2" vertex="1">
                    <mxGeometry y="30" width="200" height="90" as="geometry"/>
                </mxCell>
                <mxCell id="MhDtz_jI0-aRJ5hKViAq-4" style="edgeStyle=none;html=1;fontFamily=Roboto;fontSource=https%3A%2F%2Ffonts.google.com%2Fspecimen%2FRoboto;fontSize=10;" parent="FZKFDcrVezWJPaZsWLeS-1" source="MhDtz_jI0-aRJ5hKViAq-1" target="vHSW1K-2KK8vFgkdbPz2-4" edge="1">
                    <mxGeometry relative="1" as="geometry"/>
                </mxCell>
                <mxCell id="H4ECFf_u1Zmj5ny4ypiu-1" value="Advogado" style="swimlane;childLayout=stackLayout;horizontal=1;startSize=30;horizontalStack=0;rounded=1;fontSize=14;fontStyle=0;strokeWidth=2;resizeParent=0;resizeLast=1;shadow=0;dashed=0;align=center;" parent="FZKFDcrVezWJPaZsWLeS-1" vertex="1">
                    <mxGeometry x="85" y="660" width="200" height="110" as="geometry"/>
                </mxCell>
                <mxCell id="H4ECFf_u1Zmj5ny4ypiu-2" value="+EntityAudit: EntityAudit&#10;+Nome: string&#10;+Email: string&#10;+Oab: string&#10;+IsDefensorPublico: bool" style="align=left;strokeColor=none;fillColor=none;spacingLeft=4;fontSize=12;verticalAlign=top;resizable=0;rotatable=0;part=1;" parent="H4ECFf_u1Zmj5ny4ypiu-1" vertex="1">
                    <mxGeometry y="30" width="200" height="80" as="geometry"/>
                </mxCell>
                <mxCell id="H4ECFf_u1Zmj5ny4ypiu-6" value="PadConselheiro" style="swimlane;childLayout=stackLayout;horizontal=1;startSize=30;horizontalStack=0;rounded=1;fontSize=14;fontStyle=0;strokeWidth=2;resizeParent=0;resizeLast=1;shadow=0;dashed=0;align=center;" parent="FZKFDcrVezWJPaZsWLeS-1" vertex="1">
                    <mxGeometry x="365" y="600" width="282.5" height="160" as="geometry"/>
                </mxCell>
                <mxCell id="H4ECFf_u1Zmj5ny4ypiu-7" value="+Funcao: Enum&#10;&#10;+PadId: Guid&#10;+Pad: Pad&#10;&#10;+UserId: Guid&#10;+ApplicationUser: ApplicationUser" style="align=left;strokeColor=none;fillColor=none;spacingLeft=4;fontSize=12;verticalAlign=top;resizable=0;rotatable=0;part=1;" parent="H4ECFf_u1Zmj5ny4ypiu-6" vertex="1">
                    <mxGeometry y="30" width="282.5" height="130" as="geometry"/>
                </mxCell>
                <mxCell id="H4ECFf_u1Zmj5ny4ypiu-9" style="edgeStyle=none;html=1;fontFamily=Roboto;fontSource=https%3A%2F%2Ffonts.google.com%2Fspecimen%2FRoboto;fontSize=10;" parent="FZKFDcrVezWJPaZsWLeS-1" source="H4ECFf_u1Zmj5ny4ypiu-7" target="vHSW1K-2KK8vFgkdbPz2-5" edge="1">
                    <mxGeometry relative="1" as="geometry"/>
                </mxCell>
                <mxCell id="H4ECFf_u1Zmj5ny4ypiu-11" style="edgeStyle=none;html=1;fontFamily=Roboto;fontSource=https%3A%2F%2Ffonts.google.com%2Fspecimen%2FRoboto;fontSize=10;" parent="FZKFDcrVezWJPaZsWLeS-1" source="H4ECFf_u1Zmj5ny4ypiu-2" target="vHSW1K-2KK8vFgkdbPz2-5" edge="1">
                    <mxGeometry relative="1" as="geometry"/>
                </mxCell>
                <mxCell id="E1pvt5PxYAqy3J91nt21-0" value="PadDespacho" style="swimlane;childLayout=stackLayout;horizontal=1;startSize=30;horizontalStack=0;rounded=1;fontSize=14;fontStyle=0;strokeWidth=2;resizeParent=0;resizeLast=1;shadow=0;dashed=0;align=center;" parent="FZKFDcrVezWJPaZsWLeS-1" vertex="1">
                    <mxGeometry x="510" y="350" width="510" height="160" as="geometry"/>
                </mxCell>
                <mxCell id="E1pvt5PxYAqy3J91nt21-1" value="+EntityAudit: EntityAudit&#10;+DespachoTipo: Enum&#10;&#10;+PadId: Guid&#10;+Pad: Pad&#10;&#10;PadDespachoTrocaConselheiros: ICollection&lt;PadDespachoTrocaConselheiro&gt;&#10;PadConselheiros: ICollection&lt;PadConselho&gt;" style="align=left;strokeColor=none;fillColor=none;spacingLeft=4;fontSize=12;verticalAlign=top;resizable=0;rotatable=0;part=1;" parent="E1pvt5PxYAqy3J91nt21-0" vertex="1">
                    <mxGeometry y="30" width="510" height="130" as="geometry"/>
                </mxCell>
                <mxCell id="Vi2LIctCUz0_EjiPBWxh-0" value="PadDespachoTrocaConselheiro" style="swimlane;childLayout=stackLayout;horizontal=1;startSize=30;horizontalStack=0;rounded=1;fontSize=14;fontStyle=0;strokeWidth=2;resizeParent=0;resizeLast=1;shadow=0;dashed=0;align=center;" parent="FZKFDcrVezWJPaZsWLeS-1" vertex="1">
                    <mxGeometry x="1120" y="350" width="510" height="160" as="geometry"/>
                </mxCell>
                <mxCell id="Vi2LIctCUz0_EjiPBWxh-1" value="+EntityAudit: EntityAudit&#10;+DataTroca: DateTime&#10;&#10;+ConselheiroImpedidoId: Guid&#10;+ConselheiroImpedido: PadConselheiro&#10;&#10;+ConselheiroSubstitutoId: Guid&#10;+ConselheiroSubstituto: PadConselheiro&#10;" style="align=left;strokeColor=none;fillColor=none;spacingLeft=4;fontSize=12;verticalAlign=top;resizable=0;rotatable=0;part=1;" parent="Vi2LIctCUz0_EjiPBWxh-0" vertex="1">
                    <mxGeometry y="30" width="510" height="130" as="geometry"/>
                </mxCell>
                <mxCell id="Vi2LIctCUz0_EjiPBWxh-2" style="edgeStyle=none;html=1;fontFamily=Roboto;fontSource=https%3A%2F%2Ffonts.google.com%2Fspecimen%2FRoboto;fontSize=10;" parent="FZKFDcrVezWJPaZsWLeS-1" source="E1pvt5PxYAqy3J91nt21-1" target="vHSW1K-2KK8vFgkdbPz2-5" edge="1">
                    <mxGeometry relative="1" as="geometry"/>
                </mxCell>
                <mxCell id="Vi2LIctCUz0_EjiPBWxh-3" style="edgeStyle=none;html=1;fontFamily=Roboto;fontSource=https%3A%2F%2Ffonts.google.com%2Fspecimen%2FRoboto;fontSize=10;" parent="FZKFDcrVezWJPaZsWLeS-1" source="E1pvt5PxYAqy3J91nt21-1" target="Vi2LIctCUz0_EjiPBWxh-1" edge="1">
                    <mxGeometry relative="1" as="geometry"/>
                </mxCell>
            </root>
        </mxGraphModel>
    </diagram>
    <diagram id="nDeqZNNQnw17bFmcwuSz" name="Organograma PAD">
        <mxGraphModel dx="1294" dy="617" grid="1" gridSize="10" guides="1" tooltips="1" connect="1" arrows="1" fold="1" page="1" pageScale="1" pageWidth="827" pageHeight="1169" math="0" shadow="0">
            <root>
                <mxCell id="7H4FdaMhToWAVwdMSyIY-0"/>
                <mxCell id="7H4FdaMhToWAVwdMSyIY-1" parent="7H4FdaMhToWAVwdMSyIY-0"/>
                <mxCell id="h6ZPLtM0r6K29psfcfkF-9" value="" style="endArrow=classic;html=1;rounded=0;strokeWidth=1;startSize=3;endSize=11;jumpSize=5;exitX=1;exitY=0.5;exitDx=0;exitDy=0;" parent="7H4FdaMhToWAVwdMSyIY-1" source="h6ZPLtM0r6K29psfcfkF-15" target="h6ZPLtM0r6K29psfcfkF-12" edge="1">
                    <mxGeometry width="50" height="50" relative="1" as="geometry">
                        <mxPoint x="240" y="428" as="sourcePoint"/>
                        <mxPoint x="346" y="320" as="targetPoint"/>
                    </mxGeometry>
                </mxCell>
                <mxCell id="h6ZPLtM0r6K29psfcfkF-12" value="Será representado?" style="rhombus;whiteSpace=wrap;html=1;shadow=0;fontFamily=Helvetica;fontSize=12;align=center;strokeWidth=1;spacing=6;spacingTop=-4;" parent="7H4FdaMhToWAVwdMSyIY-1" vertex="1">
                    <mxGeometry x="250" y="215" width="65.63" height="50" as="geometry"/>
                </mxCell>
                <mxCell id="h6ZPLtM0r6K29psfcfkF-15" value="DIGITAL&lt;br&gt;(via SGPE)" style="rounded=0;whiteSpace=wrap;html=1;" parent="7H4FdaMhToWAVwdMSyIY-1" vertex="1">
                    <mxGeometry x="10" y="135" width="110" height="50" as="geometry"/>
                </mxCell>
                <mxCell id="h6ZPLtM0r6K29psfcfkF-17" value="Fim" style="ellipse;whiteSpace=wrap;html=1;" parent="7H4FdaMhToWAVwdMSyIY-1" vertex="1">
                    <mxGeometry x="259" y="305" width="45" height="30" as="geometry"/>
                </mxCell>
                <mxCell id="h6ZPLtM0r6K29psfcfkF-18" value="Não" style="endArrow=classic;html=1;rounded=0;strokeWidth=1;startSize=3;endSize=11;jumpSize=5;exitX=0.5;exitY=1;exitDx=0;exitDy=0;entryX=0.5;entryY=0;entryDx=0;entryDy=0;fontColor=#0066CC;" parent="7H4FdaMhToWAVwdMSyIY-1" source="h6ZPLtM0r6K29psfcfkF-12" target="h6ZPLtM0r6K29psfcfkF-17" edge="1">
                    <mxGeometry x="-0.4993" y="-1" width="50" height="50" relative="1" as="geometry">
                        <mxPoint x="139" y="250" as="sourcePoint"/>
                        <mxPoint x="229" y="250" as="targetPoint"/>
                        <mxPoint as="offset"/>
                    </mxGeometry>
                </mxCell>
                <mxCell id="h6ZPLtM0r6K29psfcfkF-19" value="Sim" style="endArrow=classic;html=1;rounded=0;strokeWidth=1;startSize=3;endSize=11;jumpSize=5;exitX=1;exitY=0.5;exitDx=0;exitDy=0;entryX=0;entryY=0.5;entryDx=0;entryDy=0;fontColor=#0066CC;" parent="7H4FdaMhToWAVwdMSyIY-1" source="h6ZPLtM0r6K29psfcfkF-12" target="h6ZPLtM0r6K29psfcfkF-20" edge="1">
                    <mxGeometry width="50" height="50" relative="1" as="geometry">
                        <mxPoint x="290" y="100" as="sourcePoint"/>
                        <mxPoint x="320" y="160" as="targetPoint"/>
                    </mxGeometry>
                </mxCell>
                <mxCell id="h6ZPLtM0r6K29psfcfkF-20" value="Abertura PAD" style="rounded=0;whiteSpace=wrap;html=1;" parent="7H4FdaMhToWAVwdMSyIY-1" vertex="1">
                    <mxGeometry x="350" y="70" width="110" height="50" as="geometry"/>
                </mxCell>
                <mxCell id="h6ZPLtM0r6K29psfcfkF-25" value="&lt;ul&gt;&lt;li style=&quot;font-size: 10px&quot;&gt;Criação Capa&lt;/li&gt;&lt;li style=&quot;font-size: 10px&quot;&gt;Obtenção Portaria /&amp;nbsp; Sequêncial&lt;/li&gt;&lt;/ul&gt;" style="text;strokeColor=none;fillColor=none;html=1;whiteSpace=wrap;verticalAlign=middle;overflow=hidden;fontSize=10;fontColor=#FF8000;" parent="7H4FdaMhToWAVwdMSyIY-1" vertex="1">
                    <mxGeometry x="280" y="85" width="200" height="60" as="geometry"/>
                </mxCell>
                <mxCell id="ir1p0TUH_0PNu5fX0L1o-5" style="edgeStyle=none;html=1;fontSize=12;fontColor=#0066CC;" parent="7H4FdaMhToWAVwdMSyIY-1" source="h6ZPLtM0r6K29psfcfkF-26" target="ir1p0TUH_0PNu5fX0L1o-2" edge="1">
                    <mxGeometry relative="1" as="geometry"/>
                </mxCell>
                <mxCell id="h6ZPLtM0r6K29psfcfkF-26" value="Inquérito inicial" style="rounded=0;whiteSpace=wrap;html=1;" parent="7H4FdaMhToWAVwdMSyIY-1" vertex="1">
                    <mxGeometry x="478" y="135" width="110" height="50" as="geometry"/>
                </mxCell>
                <mxCell id="h6ZPLtM0r6K29psfcfkF-27" value="" style="endArrow=classic;html=1;rounded=0;strokeWidth=1;startSize=3;endSize=11;jumpSize=5;exitX=1;exitY=0.5;exitDx=0;exitDy=0;entryX=0;entryY=0.5;entryDx=0;entryDy=0;" parent="7H4FdaMhToWAVwdMSyIY-1" source="h6ZPLtM0r6K29psfcfkF-20" target="h6ZPLtM0r6K29psfcfkF-26" edge="1">
                    <mxGeometry width="50" height="50" relative="1" as="geometry">
                        <mxPoint x="58" y="170" as="sourcePoint"/>
                        <mxPoint x="113" y="170" as="targetPoint"/>
                    </mxGeometry>
                </mxCell>
                <mxCell id="h6ZPLtM0r6K29psfcfkF-29" value="&lt;ul&gt;&lt;li style=&quot;font-size: 10px&quot;&gt;Levantamento das informações iniciais;&lt;/li&gt;&lt;li style=&quot;font-size: 10px&quot;&gt;Controle de marco? (Contagem de prazo desta fase do processo);&lt;/li&gt;&lt;/ul&gt;" style="text;strokeColor=none;fillColor=none;html=1;whiteSpace=wrap;verticalAlign=middle;overflow=hidden;fontSize=10;fontColor=#FF8000;" parent="7H4FdaMhToWAVwdMSyIY-1" vertex="1">
                    <mxGeometry x="570" y="125" width="363" height="70" as="geometry"/>
                </mxCell>
                <mxCell id="ir1p0TUH_0PNu5fX0L1o-23" style="edgeStyle=none;html=1;fontSize=12;fontColor=#0066CC;" parent="7H4FdaMhToWAVwdMSyIY-1" source="6PK8MHXHW717tg8pjEAY-0" target="6PK8MHXHW717tg8pjEAY-4" edge="1">
                    <mxGeometry relative="1" as="geometry"/>
                </mxCell>
                <mxCell id="6PK8MHXHW717tg8pjEAY-0" value="Audiências&lt;br&gt;Judiciais" style="rounded=0;whiteSpace=wrap;html=1;" parent="7H4FdaMhToWAVwdMSyIY-1" vertex="1">
                    <mxGeometry x="830" y="335" width="110" height="50" as="geometry"/>
                </mxCell>
                <mxCell id="ir1p0TUH_0PNu5fX0L1o-36" style="edgeStyle=none;html=1;entryX=0.5;entryY=0;entryDx=0;entryDy=0;fontSize=12;fontColor=#FFFFFF;" parent="7H4FdaMhToWAVwdMSyIY-1" source="6PK8MHXHW717tg8pjEAY-1" target="ir1p0TUH_0PNu5fX0L1o-35" edge="1">
                    <mxGeometry relative="1" as="geometry"/>
                </mxCell>
                <mxCell id="6PK8MHXHW717tg8pjEAY-1" value="Movimentação&lt;br&gt;&lt;font color=&quot;#ffffff&quot;&gt;Ato Ordinário&lt;br&gt;/Despacho&lt;br&gt;/Decisão&lt;/font&gt;&lt;br&gt;&lt;font color=&quot;#ff8000&quot;&gt;Decisões&lt;/font&gt;" style="rounded=0;whiteSpace=wrap;html=1;" parent="7H4FdaMhToWAVwdMSyIY-1" vertex="1">
                    <mxGeometry x="1190" y="526" width="110" height="100" as="geometry"/>
                </mxCell>
                <mxCell id="6PK8MHXHW717tg8pjEAY-2" value="Movimentação&lt;br&gt;&lt;font color=&quot;#ffffff&quot;&gt;Intimação&lt;/font&gt;&lt;br&gt;&lt;font color=&quot;#0066cc&quot;&gt;Ministério Público&lt;/font&gt;" style="rounded=0;whiteSpace=wrap;html=1;" parent="7H4FdaMhToWAVwdMSyIY-1" vertex="1">
                    <mxGeometry x="1190" y="199" width="110" height="50" as="geometry"/>
                </mxCell>
                <mxCell id="6PK8MHXHW717tg8pjEAY-3" value="Movimentação&lt;br&gt;&lt;font color=&quot;#ffffff&quot;&gt;Intimação&lt;br&gt;&lt;/font&gt;&lt;font color=&quot;#b266ff&quot;&gt;Defesa&lt;/font&gt;" style="rounded=0;whiteSpace=wrap;html=1;" parent="7H4FdaMhToWAVwdMSyIY-1" vertex="1">
                    <mxGeometry x="1190" y="399" width="110" height="50" as="geometry"/>
                </mxCell>
                <mxCell id="ir1p0TUH_0PNu5fX0L1o-24" style="edgeStyle=none;html=1;entryX=0;entryY=0.5;entryDx=0;entryDy=0;fontSize=12;fontColor=#0066CC;" parent="7H4FdaMhToWAVwdMSyIY-1" source="6PK8MHXHW717tg8pjEAY-4" target="6PK8MHXHW717tg8pjEAY-3" edge="1">
                    <mxGeometry relative="1" as="geometry"/>
                </mxCell>
                <mxCell id="ir1p0TUH_0PNu5fX0L1o-25" style="edgeStyle=none;html=1;entryX=0;entryY=0.5;entryDx=0;entryDy=0;fontSize=12;fontColor=#0066CC;" parent="7H4FdaMhToWAVwdMSyIY-1" source="6PK8MHXHW717tg8pjEAY-4" target="6PK8MHXHW717tg8pjEAY-2" edge="1">
                    <mxGeometry relative="1" as="geometry"/>
                </mxCell>
                <mxCell id="ir1p0TUH_0PNu5fX0L1o-26" style="edgeStyle=none;html=1;entryX=0;entryY=0.5;entryDx=0;entryDy=0;fontSize=12;fontColor=#0066CC;" parent="7H4FdaMhToWAVwdMSyIY-1" source="6PK8MHXHW717tg8pjEAY-4" target="6PK8MHXHW717tg8pjEAY-1" edge="1">
                    <mxGeometry relative="1" as="geometry"/>
                </mxCell>
                <mxCell id="ir1p0TUH_0PNu5fX0L1o-28" style="edgeStyle=none;html=1;entryX=0;entryY=0.5;entryDx=0;entryDy=0;fontSize=12;fontColor=#0066CC;" parent="7H4FdaMhToWAVwdMSyIY-1" source="6PK8MHXHW717tg8pjEAY-4" target="ir1p0TUH_0PNu5fX0L1o-27" edge="1">
                    <mxGeometry relative="1" as="geometry"/>
                </mxCell>
                <mxCell id="ir1p0TUH_0PNu5fX0L1o-30" style="edgeStyle=none;html=1;entryX=0;entryY=0.5;entryDx=0;entryDy=0;fontSize=12;fontColor=#0066CC;" parent="7H4FdaMhToWAVwdMSyIY-1" source="6PK8MHXHW717tg8pjEAY-4" target="ir1p0TUH_0PNu5fX0L1o-29" edge="1">
                    <mxGeometry relative="1" as="geometry"/>
                </mxCell>
                <mxCell id="ir1p0TUH_0PNu5fX0L1o-33" style="edgeStyle=none;html=1;entryX=0;entryY=0.5;entryDx=0;entryDy=0;fontSize=12;fontColor=#B266FF;" parent="7H4FdaMhToWAVwdMSyIY-1" source="6PK8MHXHW717tg8pjEAY-4" target="ir1p0TUH_0PNu5fX0L1o-32" edge="1">
                    <mxGeometry relative="1" as="geometry"/>
                </mxCell>
                <mxCell id="ir1p0TUH_0PNu5fX0L1o-34" style="edgeStyle=none;html=1;entryX=0;entryY=0.5;entryDx=0;entryDy=0;fontSize=12;fontColor=#B266FF;" parent="7H4FdaMhToWAVwdMSyIY-1" source="6PK8MHXHW717tg8pjEAY-4" target="ir1p0TUH_0PNu5fX0L1o-31" edge="1">
                    <mxGeometry relative="1" as="geometry"/>
                </mxCell>
                <mxCell id="6PK8MHXHW717tg8pjEAY-4" value="Movimentações" style="rounded=0;whiteSpace=wrap;html=1;" parent="7H4FdaMhToWAVwdMSyIY-1" vertex="1">
                    <mxGeometry x="990" y="335" width="110" height="50" as="geometry"/>
                </mxCell>
                <mxCell id="6PK8MHXHW717tg8pjEAY-9" value="&lt;div&gt;&lt;ul&gt;&lt;li&gt;&lt;span&gt;Instrução&lt;/span&gt;&lt;br&gt;&lt;/li&gt;&lt;li&gt;&lt;span&gt;Julgamento&lt;/span&gt;&lt;/li&gt;&lt;/ul&gt;&lt;/div&gt;" style="text;strokeColor=none;fillColor=none;html=1;whiteSpace=wrap;verticalAlign=middle;overflow=hidden;fontSize=10;fontColor=#FF8000;" parent="7H4FdaMhToWAVwdMSyIY-1" vertex="1">
                    <mxGeometry x="800" y="285" width="128" height="50" as="geometry"/>
                </mxCell>
                <mxCell id="ir1p0TUH_0PNu5fX0L1o-8" style="edgeStyle=none;html=1;fontSize=12;fontColor=#0066CC;" parent="7H4FdaMhToWAVwdMSyIY-1" source="6PK8MHXHW717tg8pjEAY-10" target="6PK8MHXHW717tg8pjEAY-11" edge="1">
                    <mxGeometry relative="1" as="geometry"/>
                </mxCell>
                <mxCell id="6PK8MHXHW717tg8pjEAY-10" value="Oferecimento da denúncia&lt;br&gt;&lt;font color=&quot;#0066cc&quot;&gt;(Ofício VEP)&lt;/font&gt;" style="rounded=0;whiteSpace=wrap;html=1;" parent="7H4FdaMhToWAVwdMSyIY-1" vertex="1">
                    <mxGeometry x="480" y="330" width="110" height="60" as="geometry"/>
                </mxCell>
                <mxCell id="ir1p0TUH_0PNu5fX0L1o-9" style="edgeStyle=none;html=1;fontSize=12;fontColor=#0066CC;" parent="7H4FdaMhToWAVwdMSyIY-1" source="6PK8MHXHW717tg8pjEAY-11" target="6PK8MHXHW717tg8pjEAY-0" edge="1">
                    <mxGeometry relative="1" as="geometry"/>
                </mxCell>
                <mxCell id="ir1p0TUH_0PNu5fX0L1o-10" value="Sim" style="edgeLabel;html=1;align=center;verticalAlign=middle;resizable=0;points=[];fontSize=12;fontColor=#0066CC;" parent="ir1p0TUH_0PNu5fX0L1o-9" vertex="1" connectable="0">
                    <mxGeometry x="-0.3487" y="-1" relative="1" as="geometry">
                        <mxPoint as="offset"/>
                    </mxGeometry>
                </mxCell>
                <mxCell id="ir1p0TUH_0PNu5fX0L1o-15" style="edgeStyle=none;html=1;fontSize=12;fontColor=#0066CC;" parent="7H4FdaMhToWAVwdMSyIY-1" source="6PK8MHXHW717tg8pjEAY-11" target="ir1p0TUH_0PNu5fX0L1o-14" edge="1">
                    <mxGeometry relative="1" as="geometry"/>
                </mxCell>
                <mxCell id="ir1p0TUH_0PNu5fX0L1o-16" value="Não" style="edgeLabel;html=1;align=center;verticalAlign=middle;resizable=0;points=[];fontSize=12;fontColor=#0066CC;" parent="ir1p0TUH_0PNu5fX0L1o-15" vertex="1" connectable="0">
                    <mxGeometry x="-0.4957" y="-2" relative="1" as="geometry">
                        <mxPoint as="offset"/>
                    </mxGeometry>
                </mxCell>
                <mxCell id="6PK8MHXHW717tg8pjEAY-11" value="Decisão Pronúncia &lt;font color=&quot;#0066cc&quot;&gt;(Admissibilidade da denúncia)&lt;/font&gt;" style="html=1;whiteSpace=wrap;aspect=fixed;shape=isoRectangle;fontFamily=Helvetica;fontSize=12;fontColor=rgb(240, 240, 240);align=center;strokeColor=rgb(240, 240, 240);fillColor=rgb(42, 42, 42);" parent="7H4FdaMhToWAVwdMSyIY-1" vertex="1">
                    <mxGeometry x="650" y="330" width="124" height="60" as="geometry"/>
                </mxCell>
                <UserObject label="https://www.conjur.com.br/2021-set-18/tribunal-juri-decisao-pronuncia-garantia-elementos-colhidos-inquerito-policial" link="https://www.conjur.com.br/2021-set-18/tribunal-juri-decisao-pronuncia-garantia-elementos-colhidos-inquerito-policial" id="6PK8MHXHW717tg8pjEAY-12">
                    <mxCell style="text;whiteSpace=wrap;html=1;fontSize=12;" parent="7H4FdaMhToWAVwdMSyIY-1" vertex="1">
                        <mxGeometry x="20" y="940" width="550" height="40" as="geometry"/>
                    </mxCell>
                </UserObject>
                <mxCell id="jHGwoszThR4kBTeHuBn3-0" value="Organograma PAD - Processo Administrativo Disciplinar" style="text;html=1;strokeColor=none;fillColor=none;align=left;verticalAlign=middle;whiteSpace=wrap;rounded=0;fontSize=18;fontColor=#FFFFFF;" parent="7H4FdaMhToWAVwdMSyIY-1" vertex="1">
                    <mxGeometry x="1" width="649" height="30" as="geometry"/>
                </mxCell>
                <mxCell id="jHGwoszThR4kBTeHuBn3-1" value="Arquivamento" style="text;html=1;strokeColor=none;fillColor=none;align=left;verticalAlign=middle;whiteSpace=wrap;rounded=0;dashed=1;fontSize=12;fontColor=#FF8000;" parent="7H4FdaMhToWAVwdMSyIY-1" vertex="1">
                    <mxGeometry x="200" y="201" width="113" height="30" as="geometry"/>
                </mxCell>
                <mxCell id="ir1p0TUH_0PNu5fX0L1o-0" value="Importação PDF ofício assinado no SGPE" style="text;html=1;strokeColor=none;fillColor=none;align=left;verticalAlign=middle;whiteSpace=wrap;rounded=0;dashed=1;fontSize=12;fontColor=#FF8000;" parent="7H4FdaMhToWAVwdMSyIY-1" vertex="1">
                    <mxGeometry x="10" y="100" width="133" height="30" as="geometry"/>
                </mxCell>
                <mxCell id="ir1p0TUH_0PNu5fX0L1o-6" style="edgeStyle=none;html=1;fontSize=12;fontColor=#0066CC;" parent="7H4FdaMhToWAVwdMSyIY-1" source="ir1p0TUH_0PNu5fX0L1o-2" target="6PK8MHXHW717tg8pjEAY-10" edge="1">
                    <mxGeometry relative="1" as="geometry"/>
                </mxCell>
                <mxCell id="ir1p0TUH_0PNu5fX0L1o-2" value="Audiências administrativas&lt;br&gt;(Opcional?)" style="rounded=0;whiteSpace=wrap;html=1;" parent="7H4FdaMhToWAVwdMSyIY-1" vertex="1">
                    <mxGeometry x="478" y="235" width="112" height="50" as="geometry"/>
                </mxCell>
                <mxCell id="ir1p0TUH_0PNu5fX0L1o-3" value="&lt;ul&gt;&lt;li style=&quot;font-size: 10px&quot;&gt;Agenda de audiências;&lt;/li&gt;&lt;li style=&quot;font-size: 10px&quot;&gt;Agenda visita defensor réu;&lt;/li&gt;&lt;/ul&gt;" style="text;strokeColor=none;fillColor=none;html=1;whiteSpace=wrap;verticalAlign=middle;overflow=hidden;fontSize=10;fontColor=#FF8000;" parent="7H4FdaMhToWAVwdMSyIY-1" vertex="1">
                    <mxGeometry x="570" y="225" width="180" height="70" as="geometry"/>
                </mxCell>
                <mxCell id="ir1p0TUH_0PNu5fX0L1o-18" style="edgeStyle=none;html=1;entryX=0.5;entryY=1;entryDx=0;entryDy=0;fontSize=12;fontColor=#0066CC;exitX=0.086;exitY=0.505;exitDx=0;exitDy=0;exitPerimeter=0;" parent="7H4FdaMhToWAVwdMSyIY-1" source="ir1p0TUH_0PNu5fX0L1o-14" target="6PK8MHXHW717tg8pjEAY-10" edge="1">
                    <mxGeometry relative="1" as="geometry"/>
                </mxCell>
                <mxCell id="ir1p0TUH_0PNu5fX0L1o-19" value="Sim" style="edgeLabel;html=1;align=center;verticalAlign=middle;resizable=0;points=[];fontSize=12;fontColor=#0066CC;" parent="ir1p0TUH_0PNu5fX0L1o-18" vertex="1" connectable="0">
                    <mxGeometry x="-0.146" y="-2" relative="1" as="geometry">
                        <mxPoint as="offset"/>
                    </mxGeometry>
                </mxCell>
                <mxCell id="ir1p0TUH_0PNu5fX0L1o-22" style="edgeStyle=none;html=1;fontSize=12;fontColor=#0066CC;" parent="7H4FdaMhToWAVwdMSyIY-1" source="ir1p0TUH_0PNu5fX0L1o-14" target="ir1p0TUH_0PNu5fX0L1o-21" edge="1">
                    <mxGeometry relative="1" as="geometry"/>
                </mxCell>
                <mxCell id="ir1p0TUH_0PNu5fX0L1o-14" value="Recurso administrativo?" style="html=1;whiteSpace=wrap;aspect=fixed;shape=isoRectangle;fontFamily=Helvetica;fontSize=12;fontColor=rgb(240, 240, 240);align=center;strokeColor=rgb(240, 240, 240);fillColor=rgb(42, 42, 42);" parent="7H4FdaMhToWAVwdMSyIY-1" vertex="1">
                    <mxGeometry x="650" y="420" width="124" height="60" as="geometry"/>
                </mxCell>
                <mxCell id="ir1p0TUH_0PNu5fX0L1o-21" value="Fim" style="ellipse;whiteSpace=wrap;html=1;dashed=1;fontSize=12;fontColor=#0066CC;fillColor=none;" parent="7H4FdaMhToWAVwdMSyIY-1" vertex="1">
                    <mxGeometry x="693.25" y="510" width="37.5" height="25" as="geometry"/>
                </mxCell>
                <mxCell id="ir1p0TUH_0PNu5fX0L1o-27" value="Movimentação&lt;br&gt;&lt;font color=&quot;#ffffff&quot;&gt;Manifestação&lt;/font&gt;&lt;br&gt;&lt;font color=&quot;#0066cc&quot;&gt;Ministério Público&lt;/font&gt;" style="rounded=0;whiteSpace=wrap;html=1;labelBackgroundColor=default;" parent="7H4FdaMhToWAVwdMSyIY-1" vertex="1">
                    <mxGeometry x="1190" y="134" width="110" height="50" as="geometry"/>
                </mxCell>
                <mxCell id="4P5vUjjalGCTeuFoUzmF-1" style="edgeStyle=none;html=1;entryX=0;entryY=0.5;entryDx=0;entryDy=0;fontSize=8;fontColor=#FF8000;strokeColor=#FFFFFF;" parent="7H4FdaMhToWAVwdMSyIY-1" source="ir1p0TUH_0PNu5fX0L1o-29" target="4P5vUjjalGCTeuFoUzmF-0" edge="1">
                    <mxGeometry relative="1" as="geometry"/>
                </mxCell>
                <mxCell id="ir1p0TUH_0PNu5fX0L1o-29" value="Movimentação&lt;br&gt;&lt;font color=&quot;#ffffff&quot;&gt;Manifestação&lt;br&gt;&lt;/font&gt;&lt;font color=&quot;#b266ff&quot;&gt;Defesa&lt;/font&gt;" style="rounded=0;whiteSpace=wrap;html=1;" parent="7H4FdaMhToWAVwdMSyIY-1" vertex="1">
                    <mxGeometry x="1190" y="461" width="110" height="50" as="geometry"/>
                </mxCell>
                <mxCell id="ir1p0TUH_0PNu5fX0L1o-31" value="Movimentação&lt;br&gt;&lt;font color=&quot;#ffffff&quot;&gt;Intimação&lt;br&gt;&lt;/font&gt;&lt;font color=&quot;#f01d1d&quot;&gt;Unidade Prisional&lt;/font&gt;" style="rounded=0;whiteSpace=wrap;html=1;" parent="7H4FdaMhToWAVwdMSyIY-1" vertex="1">
                    <mxGeometry x="1190" y="334" width="110" height="50" as="geometry"/>
                </mxCell>
                <mxCell id="ir1p0TUH_0PNu5fX0L1o-32" value="Movimentação&lt;br&gt;&lt;font color=&quot;#ffffff&quot;&gt;Manifestação&lt;/font&gt;&lt;br&gt;&lt;font color=&quot;#f01d1d&quot;&gt;Unidade Prisional&lt;/font&gt;" style="rounded=0;whiteSpace=wrap;html=1;" parent="7H4FdaMhToWAVwdMSyIY-1" vertex="1">
                    <mxGeometry x="1190" y="269" width="110" height="50" as="geometry"/>
                </mxCell>
                <mxCell id="ir1p0TUH_0PNu5fX0L1o-35" value="Fim" style="ellipse;whiteSpace=wrap;html=1;dashed=1;fontSize=12;fontColor=#0066CC;fillColor=none;" parent="7H4FdaMhToWAVwdMSyIY-1" vertex="1">
                    <mxGeometry x="1226.25" y="670" width="37.5" height="25" as="geometry"/>
                </mxCell>
                <mxCell id="ir1p0TUH_0PNu5fX0L1o-37" value="Arquivamento" style="text;html=1;strokeColor=none;fillColor=none;align=left;verticalAlign=middle;whiteSpace=wrap;rounded=0;dashed=1;fontSize=12;fontColor=#FF8000;" parent="7H4FdaMhToWAVwdMSyIY-1" vertex="1">
                    <mxGeometry x="1310" y="640" width="113" height="30" as="geometry"/>
                </mxCell>
                <mxCell id="ir1p0TUH_0PNu5fX0L1o-38" value="" style="endArrow=none;dashed=1;html=1;fontSize=12;fontColor=#FFFFFF;fillColor=#f5f5f5;strokeColor=#FFFFFF;entryX=0.924;entryY=1.179;entryDx=0;entryDy=0;entryPerimeter=0;" parent="7H4FdaMhToWAVwdMSyIY-1" target="jHGwoszThR4kBTeHuBn3-0" edge="1">
                    <mxGeometry width="50" height="50" relative="1" as="geometry">
                        <mxPoint x="601" y="900" as="sourcePoint"/>
                        <mxPoint x="600" y="80" as="targetPoint"/>
                    </mxGeometry>
                </mxCell>
                <mxCell id="ir1p0TUH_0PNu5fX0L1o-41" value="1ª Instância" style="text;html=1;strokeColor=none;fillColor=none;align=left;verticalAlign=middle;whiteSpace=wrap;rounded=0;dashed=1;fontSize=22;fontColor=#F01D1D;" parent="7H4FdaMhToWAVwdMSyIY-1" vertex="1">
                    <mxGeometry x="604.5" y="35" width="166.5" height="30" as="geometry"/>
                </mxCell>
                <mxCell id="ir1p0TUH_0PNu5fX0L1o-42" value="" style="endArrow=none;dashed=1;html=1;fontSize=12;fontColor=#FFFFFF;fillColor=#f5f5f5;strokeColor=#FFFFFF;entryX=0.924;entryY=1.179;entryDx=0;entryDy=0;entryPerimeter=0;" parent="7H4FdaMhToWAVwdMSyIY-1" edge="1">
                    <mxGeometry width="50" height="50" relative="1" as="geometry">
                        <mxPoint x="1320.3200000000002" y="904.6300000000002" as="sourcePoint"/>
                        <mxPoint x="1319.9960000000005" y="40.00000000000001" as="targetPoint"/>
                    </mxGeometry>
                </mxCell>
                <mxCell id="ir1p0TUH_0PNu5fX0L1o-43" value="2ª Instância" style="text;html=1;strokeColor=none;fillColor=none;align=left;verticalAlign=middle;whiteSpace=wrap;rounded=0;dashed=1;fontSize=22;fontColor=#F01D1D;" parent="7H4FdaMhToWAVwdMSyIY-1" vertex="1">
                    <mxGeometry x="1330" y="40" width="166.5" height="30" as="geometry"/>
                </mxCell>
                <mxCell id="4P5vUjjalGCTeuFoUzmF-0" value="Movimentação&lt;br&gt;&lt;font color=&quot;#ffffff&quot;&gt;Manifestação&lt;br&gt;&lt;/font&gt;&lt;font color=&quot;#b266ff&quot;&gt;Defesa&lt;/font&gt;" style="rounded=0;whiteSpace=wrap;html=1;" parent="7H4FdaMhToWAVwdMSyIY-1" vertex="1">
                    <mxGeometry x="1370" y="390" width="110" height="50" as="geometry"/>
                </mxCell>
                <mxCell id="JLaGWNNUqus7JFe7g1v5-1" value="MANUAL&lt;br&gt;(via Ofício)" style="rounded=0;whiteSpace=wrap;html=1;" parent="7H4FdaMhToWAVwdMSyIY-1" vertex="1">
                    <mxGeometry x="10" y="245" width="110" height="50" as="geometry"/>
                </mxCell>
            </root>
        </mxGraphModel>
    </diagram>
    <diagram id="yU6UkbJK2iBh44PcudrT" name="Página-4">
        <mxGraphModel dx="1294" dy="617" grid="1" gridSize="10" guides="1" tooltips="1" connect="1" arrows="1" fold="1" page="1" pageScale="1" pageWidth="1169" pageHeight="827" math="0" shadow="0">
            <root>
                <mxCell id="HR1TRSRDNi0xU739WCEg-0"/>
                <mxCell id="HR1TRSRDNi0xU739WCEg-1" parent="HR1TRSRDNi0xU739WCEg-0"/>
                <mxCell id="R8vPwQMWn2W9scb2SFUv-0" style="edgeStyle=none;html=1;" parent="HR1TRSRDNi0xU739WCEg-1" source="HR1TRSRDNi0xU739WCEg-2" target="DDaRnVArQ-H2JQWd6do8-1" edge="1">
                    <mxGeometry relative="1" as="geometry"/>
                </mxCell>
                <mxCell id="HR1TRSRDNi0xU739WCEg-2" value="História de Usuário" style="rounded=0;whiteSpace=wrap;html=1;fillColor=#d80073;fontColor=#ffffff;strokeColor=#A50040;" parent="HR1TRSRDNi0xU739WCEg-1" vertex="1">
                    <mxGeometry x="20" y="110" width="120" height="60" as="geometry"/>
                </mxCell>
                <mxCell id="R8vPwQMWn2W9scb2SFUv-3" style="edgeStyle=none;html=1;" parent="HR1TRSRDNi0xU739WCEg-1" source="DDaRnVArQ-H2JQWd6do8-0" target="R8vPwQMWn2W9scb2SFUv-2" edge="1">
                    <mxGeometry relative="1" as="geometry"/>
                </mxCell>
                <mxCell id="DDaRnVArQ-H2JQWd6do8-0" value="Especificação de requisito" style="rounded=0;whiteSpace=wrap;html=1;fillColor=#60a917;fontColor=#ffffff;strokeColor=#2D7600;" parent="HR1TRSRDNi0xU739WCEg-1" vertex="1">
                    <mxGeometry x="400" y="110" width="120" height="60" as="geometry"/>
                </mxCell>
                <mxCell id="R8vPwQMWn2W9scb2SFUv-1" style="edgeStyle=none;html=1;" parent="HR1TRSRDNi0xU739WCEg-1" source="DDaRnVArQ-H2JQWd6do8-1" target="DDaRnVArQ-H2JQWd6do8-0" edge="1">
                    <mxGeometry relative="1" as="geometry"/>
                </mxCell>
                <mxCell id="DDaRnVArQ-H2JQWd6do8-1" value="Levantamento Requisito" style="rounded=0;whiteSpace=wrap;html=1;fillColor=#60a917;fontColor=#ffffff;strokeColor=#2D7600;" parent="HR1TRSRDNi0xU739WCEg-1" vertex="1">
                    <mxGeometry x="210" y="110" width="120" height="60" as="geometry"/>
                </mxCell>
                <mxCell id="R8vPwQMWn2W9scb2SFUv-6" style="edgeStyle=none;html=1;" parent="HR1TRSRDNi0xU739WCEg-1" source="R8vPwQMWn2W9scb2SFUv-2" target="R8vPwQMWn2W9scb2SFUv-5" edge="1">
                    <mxGeometry relative="1" as="geometry"/>
                </mxCell>
                <mxCell id="R8vPwQMWn2W9scb2SFUv-8" style="edgeStyle=none;html=1;" parent="HR1TRSRDNi0xU739WCEg-1" source="R8vPwQMWn2W9scb2SFUv-2" target="R8vPwQMWn2W9scb2SFUv-4" edge="1">
                    <mxGeometry relative="1" as="geometry"/>
                </mxCell>
                <mxCell id="R8vPwQMWn2W9scb2SFUv-2" value="Desenvolvimento" style="rounded=0;whiteSpace=wrap;html=1;fillColor=#60a917;fontColor=#ffffff;strokeColor=#2D7600;" parent="HR1TRSRDNi0xU739WCEg-1" vertex="1">
                    <mxGeometry x="585" y="110" width="120" height="60" as="geometry"/>
                </mxCell>
                <mxCell id="R8vPwQMWn2W9scb2SFUv-7" style="edgeStyle=none;html=1;" parent="HR1TRSRDNi0xU739WCEg-1" source="R8vPwQMWn2W9scb2SFUv-4" target="R8vPwQMWn2W9scb2SFUv-5" edge="1">
                    <mxGeometry relative="1" as="geometry"/>
                </mxCell>
                <mxCell id="R8vPwQMWn2W9scb2SFUv-4" value="Testes" style="rounded=0;whiteSpace=wrap;html=1;fillColor=#60a917;fontColor=#ffffff;strokeColor=#2D7600;" parent="HR1TRSRDNi0xU739WCEg-1" vertex="1">
                    <mxGeometry x="585" y="210" width="120" height="60" as="geometry"/>
                </mxCell>
                <mxCell id="R8vPwQMWn2W9scb2SFUv-5" value="Produção" style="rounded=0;whiteSpace=wrap;html=1;fillColor=#d80073;fontColor=#ffffff;strokeColor=#A50040;" parent="HR1TRSRDNi0xU739WCEg-1" vertex="1">
                    <mxGeometry x="760" y="150" width="120" height="60" as="geometry"/>
                </mxCell>
            </root>
        </mxGraphModel>
    </diagram>
</mxfile>